<?xml version="1.0" standalone="no"?>
<!DOCTYPE svg PUBLIC "-//W3C//DTD SVG 20010904//EN"
 "http://www.w3.org/TR/2001/REC-SVG-20010904/DTD/svg10.dtd">
<svg version="1.0" xmlns="http://www.w3.org/2000/svg"
 width="400.000000pt" height="400.000000pt" viewBox="0 0 400.000000 400.000000"
 preserveAspectRatio="xMidYMid meet">
<metadata>
Created by potrace 1.16, written by Peter Selinger 2001-2019
</metadata>
<g transform="translate(0.000000,400.000000) scale(0.100000,-0.100000)"
fill="#000000" stroke="none">
<path d="M1811 3290 c-213 -56 -390 -200 -484 -393 -60 -122 -77 -197 -77
-339 0 -183 55 -344 160 -472 22 -26 40 -50 40 -53 0 -3 -22 -29 -49 -59 -84
-92 -121 -190 -121 -324 0 -139 38 -235 131 -334 95 -103 217 -156 354 -156
129 0 235 40 338 128 99 85 191 88 268 11 84 -84 71 -208 -30 -276 -68 -46
-144 -40 -216 17 -76 60 -157 64 -220 9 -41 -36 -60 -92 -51 -144 10 -49 80
-123 155 -163 192 -103 417 -73 574 77 106 101 149 202 150 351 0 204 -98 360
-283 449 -74 36 -76 36 -205 36 -129 0 -131 0 -205 -36 -41 -20 -95 -54 -120
-76 -60 -53 -100 -73 -149 -73 -51 0 -89 15 -124 48 -42 39 -57 75 -57 132 0
61 17 96 64 138 40 35 88 47 149 38 196 -31 264 -30 395 5 258 68 467 278 532
535 39 151 24 356 -36 492 l-23 53 34 45 c58 76 62 191 9 266 -74 105 -239
121 -335 32 l-26 -24 -46 20 c-139 62 -348 78 -496 40z m372 -327 c90 -43 177
-129 220 -220 30 -64 32 -74 32 -183 0 -109 -2 -119 -32 -183 -21 -44 -53 -89
-92 -128 -39 -39 -84 -71 -128 -92 -64 -30 -74 -32 -183 -32 -109 0 -119 2
-183 32 -91 43 -177 129 -220 220 -30 64 -32 74 -32 183 0 109 2 119 32 183
37 78 125 172 193 207 81 42 120 50 225 47 89 -2 108 -6 168 -34z"/>
</g>
</svg>
